<?xml version="1.0" encoding="utf-8"?>
<!-- Generator: Adobe Illustrator 23.0.3, SVG Export Plug-In . SVG Version: 6.00 Build 0)  -->
<svg version="1.1"
	 id="Layer_1" xmlns:cc="http://creativecommons.org/ns#" xmlns:dc="http://purl.org/dc/elements/1.1/" xmlns:inkscape="http://www.inkscape.org/namespaces/inkscape" xmlns:rdf="http://www.w3.org/1999/02/22-rdf-syntax-ns#" xmlns:sodipodi="http://sodipodi.sourceforge.net/DTD/sodipodi-0.dtd" xmlns:svg="http://www.w3.org/2000/svg"
	 xmlns="http://www.w3.org/2000/svg" xmlns:xlink="http://www.w3.org/1999/xlink" x="0px" y="0px" viewBox="0 0 100 125"
	 style="enable-background:new 0 0 100 125;" xml:space="preserve">
<style type="text/css">
	.st0{fill:#6164BF;stroke:#6164BF;stroke-width:2;stroke-miterlimit:10;}
</style>
<g transform="translate(0,-952.36218)">
	<g id="XMLID_1_">
		<g>
			<path class="st0" d="M83.1,970.4c1,0,1.9,0.7,2.1,1.6c0.2,1.1-0.5,2.1-1.6,2.3l-5.3,1.4c-0.1,0-0.2,0.1-0.3,0.1
				c-1.1,0.2-2.1-0.5-2.3-1.6c-0.2-1.1,0.5-2.1,1.6-2.3l5.3-1.4c0.1,0,0.2-0.1,0.3-0.1C82.9,970.4,83,970.4,83.1,970.4z"/>
			<path class="st0" d="M76.8,956.4c0.3-0.6,0.9-1,1.6-1c0.4,0,0.8,0.1,1.2,0.3c1,0.6,1.3,1.8,0.7,2.7l-5.2,9c0,0.1-0.1,0.2-0.1,0.3
				c-0.6,0.9-1.9,1.2-2.8,0.5c-0.9-0.6-1.2-1.9-0.5-2.8L76.8,956.4z"/>
			<path class="st0" d="M77.8,985c0.3,1.1-0.3,2.2-1.4,2.5s-2.2-0.4-2.5-1.4l-1.4-5.3c-0.1-0.2-0.1-0.4-0.1-0.6c0-1.1,0.9-2,2.1-2
				c0.9,0,1.7,0.7,1.9,1.5L77.8,985L77.8,985z"/>
			<path class="st0" d="M65.8,972.5c0.4-0.7,1-1.1,1.7-1.3c0.2,0,0.4-0.1,0.5-0.1c0.6,0,1.1,0.1,1.6,0.4c0.5,0.3,0.9,0.9,1,1.5
				c0.1,1.1-0.7,2.1-1.8,2.2l-4.4,7.7c1.5,1,2.8,2.2,4.1,3.4c0.5,0.5,0.7,1.3,0.5,2l-2.3,7.5c7.2,9.1,8.6,22.2,2.4,32.9
				c-8,14-25.8,18.8-39.8,10.8c-13.9-8.1-18.7-26-10.6-40c6.1-10.7,18.1-16.1,29.5-14.4l5.3-5.8c0.3-0.3,0.8-0.6,1.2-0.6
				c0.3,0,0.5,0,0.8,0.1c1.8,0.5,3.6,1.2,5.2,2.1L65.8,972.5z M65.8,1026.7c7-12.1,2.9-27.6-9.1-34.6c-4.1-2.4-8.6-3.5-13.1-3.4
				c-8.5,0.2-16.6,4.7-21.2,12.7c-7,12.1-2.9,27.5,9.2,34.5C43.6,1043,58.9,1038.8,65.8,1026.7z M63.7,992.4l1.2-3.9
				c-1.3-1.2-2.7-2.4-4.3-3.3l0,0c-1.5-0.9-3.2-1.5-4.9-2.1l-2.8,3c2,0.6,3.9,1.5,5.8,2.6C60.5,989.7,62.2,991,63.7,992.4z"/>
			<path class="st0" d="M67.3,965.6c0.3,1.1-0.4,2.2-1.4,2.4c-1.1,0.3-2.2-0.4-2.4-1.4l-1.4-5.3c0-0.1-0.1-0.3-0.1-0.4
				c-0.1-1.1,0.8-2.1,1.9-2.1c1-0.1,1.8,0.6,2.1,1.5L67.3,965.6z"/>
			<path class="st0" d="M38.6,1030.2c0.9,0.6,1.1,1.9,0.5,2.8s-1.9,1.2-2.8,0.5c-11.2-6.5-15-20.9-8.5-32.2c0.3-0.6,1-1,1.8-1
				c0.4,0,0.7,0.1,1,0.3c0.9,0.6,1.2,1.8,0.7,2.8c-5.4,9.4-2.2,21.4,7.1,26.8C38.4,1030.2,38.5,1030.2,38.6,1030.2z"/>
		</g>
	</g>
</g>
</svg>
