<?xml version="1.0" encoding="utf-8"?>
<!-- Generator: Adobe Illustrator 23.0.3, SVG Export Plug-In . SVG Version: 6.00 Build 0)  -->
<svg version="1.1" xmlns="http://www.w3.org/2000/svg" xmlns:xlink="http://www.w3.org/1999/xlink" x="0px" y="0px"
	 viewBox="0 0 100 125" style="enable-background:new 0 0 100 125;" xml:space="preserve">
<style type="text/css">
	.st0{opacity:0.15;}
	.st1{fill:#6164BF;}
	.st2{fill:none;stroke:#000000;stroke-width:2;stroke-miterlimit:10;}
	.st3{fill:#F2EDBD;}
	.st4{fill:none;stroke:#6164BF;stroke-width:2;stroke-miterlimit:10;}
</style>
<g id="Layer_2">
	<g transform="translate(0,-952.36218)" class="st0">
		<g id="XMLID_3_">
			<g>
				<path d="M88.9,987.4c1,0,1.9,0.7,2.1,1.6c0.2,1.1-0.5,2.1-1.6,2.3l-5.3,1.4c-0.1,0-0.2,0.1-0.3,0.1c-1.1,0.2-2.1-0.5-2.3-1.6
					c-0.2-1.1,0.5-2.1,1.6-2.4l5.3-1.4c0.1,0,0.2-0.1,0.3-0.1C88.8,987.5,88.8,987.5,88.9,987.4z"/>
				<path d="M85.4,972.6c1,0.6,1.3,1.8,0.7,2.7l-5.2,9c0,0.1-0.1,0.2-0.1,0.3c-0.6,0.9-1.9,1.2-2.8,0.5c-0.9-0.6-1.1-1.9-0.5-2.8
					l5.2-9c0.3-0.6,0.9-1,1.6-1C84.6,972.3,85,972.4,85.4,972.6z"/>
				<path d="M83.6,1002c0.3,1.1-0.3,2.2-1.4,2.5c-1.1,0.3-2.2-0.3-2.5-1.4l-1.4-5.4c-0.1-0.2-0.1-0.4-0.1-0.6c0-1.1,0.9-2,2.1-2
					c0.9,0,1.7,0.7,1.9,1.5L83.6,1002C83.6,1002,83.6,1002,83.6,1002z"/>
				<path d="M71.7,1043.7c7-12.1,2.9-27.6-9.1-34.6c-4.1-2.4-8.6-3.5-13.1-3.4c-8.5,0.2-16.7,4.7-21.2,12.7
					c-6.9,12.1-2.9,27.5,9.2,34.5C49.4,1060,64.7,1055.9,71.7,1043.7z M75.6,988.5c0.5,0.3,0.9,0.9,1,1.5c0.1,1.1-0.7,2.1-1.8,2.2
					l-4.4,7.7c1.5,1,2.8,2.2,4.1,3.4c0.5,0.5,0.7,1.3,0.5,2l-2.3,7.5c7.2,9.1,8.6,22.2,2.4,32.9c-8,14-25.8,18.8-39.8,10.8
					c-13.9-8.1-18.7-26-10.6-40c6.1-10.7,18.1-16.1,29.5-14.4l5.3-5.8c0.3-0.4,0.8-0.6,1.2-0.6c0.3,0,0.5,0,0.8,0.1
					c1.8,0.5,3.6,1.2,5.2,2.1l4.8-8.3c0.4-0.7,1-1.1,1.7-1.3c0.2,0,0.3-0.1,0.5-0.1C74.5,988.1,75.1,988.2,75.6,988.5z M69.6,1009.4
					l1.2-3.9c-1.3-1.2-2.7-2.4-4.2-3.3v0c-1.6-0.9-3.2-1.5-4.9-2.1l-2.8,3c2,0.6,3.9,1.5,5.8,2.6C66.4,1006.8,68.1,1008,69.6,1009.4
					z"/>
				<path d="M73.2,982.6c0.3,1.1-0.4,2.2-1.4,2.4c-1.1,0.3-2.2-0.4-2.4-1.4l-1.4-5.3c0-0.1-0.1-0.3-0.1-0.4
					c-0.1-1.1,0.8-2.1,1.8-2.1c1,0,1.8,0.6,2.1,1.5L73.2,982.6z"/>
				<path d="M70.8,1005.5l-1.2,3.9c-1.5-1.4-3.2-2.7-5-3.7c-1.9-1.1-3.8-1.9-5.8-2.6l2.8-3c1.7,0.6,3.4,1.2,4.9,2.1v0
					C68.1,1003.1,69.4,1004.3,70.8,1005.5z"/>
				<path class="st1" d="M44.4,1047.3c0.9,0.6,1.2,1.9,0.5,2.8c-0.6,0.9-1.9,1.2-2.8,0.5c-11.2-6.5-15-21-8.5-32.2
					c0.4-0.6,1-1,1.8-1c0.4,0,0.7,0.1,1,0.3c0.9,0.6,1.2,1.8,0.7,2.8c-5.4,9.4-2.2,21.4,7.1,26.8
					C44.3,1047.2,44.3,1047.2,44.4,1047.3z"/>
				<path d="M62.5,1009.2c12,7,16.1,22.4,9.1,34.6c-7,12.1-22.3,16.3-34.3,9.3c-12-7-16.1-22.4-9.2-34.5c4.6-8,12.7-12.5,21.2-12.7
					C53.9,1005.7,58.4,1006.8,62.5,1009.2z M44.9,1050c0.6-0.9,0.4-2.2-0.5-2.8c-0.1-0.1-0.1-0.1-0.2-0.1
					c-9.3-5.4-12.5-17.4-7.1-26.8c0.6-1,0.3-2.2-0.7-2.8c-0.3-0.2-0.7-0.3-1-0.3c-0.7,0-1.4,0.4-1.8,1c-6.5,11.3-2.7,25.7,8.5,32.2
					C43.1,1051.2,44.3,1051,44.9,1050z"/>
			</g>
			<g>
				<path class="st2" d="M84.2,972.4c-0.7,0.1-1.2,0.5-1.6,1l-5.2,9c-0.6,0.9-0.4,2.2,0.5,2.8c0.9,0.6,2.2,0.4,2.8-0.5
					c0.1-0.1,0.1-0.2,0.1-0.3l5.2-9c0.6-1,0.2-2.2-0.7-2.7C85,972.4,84.6,972.3,84.2,972.4z"/>
				<path class="st2" d="M69.7,975.7c-1.1,0.1-1.9,1-1.8,2.1c0,0.1,0,0.3,0.1,0.4l1.4,5.3c0.3,1.1,1.4,1.7,2.4,1.4
					c1.1-0.3,1.7-1.4,1.4-2.4l-1.4-5.3C71.5,976.3,70.6,975.7,69.7,975.7z"/>
				<path class="st2" d="M88.9,987.4c-0.1,0-0.2,0-0.3,0c-0.1,0-0.2,0.1-0.3,0.1L83,989c-1.1,0.2-1.8,1.3-1.6,2.4
					c0.2,1.1,1.3,1.8,2.3,1.6c0.1,0,0.2,0,0.3-0.1l5.3-1.4c1.1-0.2,1.8-1.2,1.6-2.3C90.8,988.1,89.9,987.4,88.9,987.4z"/>
				<path class="st2" d="M73.9,988.1c-0.2,0-0.3,0-0.5,0.1c-0.7,0.2-1.3,0.6-1.7,1.3l-4.8,8.3c-1.7-0.8-3.4-1.6-5.2-2.1
					c-0.2-0.1-0.5-0.1-0.8-0.1c-0.5,0.1-0.9,0.3-1.2,0.6l-5.3,5.8c-11.5-1.7-23.4,3.7-29.5,14.4c-8,14-3.3,31.9,10.6,40
					c13.9,8.1,31.7,3.2,39.8-10.8c6.2-10.7,4.8-23.8-2.4-32.9l2.3-7.5c0.2-0.7,0-1.5-0.5-2c-1.3-1.3-2.7-2.4-4.1-3.4l4.4-7.7
					c1.1-0.1,1.9-1.1,1.8-2.2c-0.1-0.6-0.4-1.2-1-1.5C75.1,988.2,74.5,988.1,73.9,988.1z"/>
				<path class="st2" d="M80.3,995.1c-1.1,0-2,0.9-2.1,2c0,0.2,0,0.4,0.1,0.6l1.4,5.4c0.3,1.1,1.4,1.7,2.5,1.4
					c1.1-0.3,1.7-1.4,1.4-2.5c0,0,0,0,0,0l-1.4-5.3C82,995.8,81.2,995.2,80.3,995.1z"/>
				<path class="st2" d="M61.6,1000.1c1.7,0.6,3.4,1.2,4.9,2.1v0c1.5,0.9,2.9,2.1,4.2,3.3l-1.2,3.9c-1.5-1.4-3.2-2.7-5-3.7
					c-1.9-1.1-3.8-1.9-5.8-2.6L61.6,1000.1z"/>
				<path class="st2" d="M49.4,1005.8c4.5-0.1,9,1,13.1,3.4c12,7,16.1,22.4,9.1,34.6c-7,12.1-22.3,16.3-34.3,9.3
					c-12-7-16.1-22.4-9.2-34.5C32.8,1010.5,41,1006,49.4,1005.8z"/>
				<path class="st2" d="M35.4,1017.3c-0.7,0-1.4,0.4-1.8,1c-6.5,11.3-2.7,25.7,8.5,32.2c0.9,0.6,2.2,0.4,2.8-0.5
					c0.6-0.9,0.4-2.2-0.5-2.8c-0.1-0.1-0.1-0.1-0.2-0.1c-9.3-5.4-12.5-17.4-7.1-26.8c0.6-1,0.3-2.2-0.7-2.8
					C36.1,1017.4,35.7,1017.3,35.4,1017.3z"/>
			</g>
		</g>
	</g>
</g>
<g id="Layer_1" xmlns:cc="http://creativecommons.org/ns#" xmlns:dc="http://purl.org/dc/elements/1.1/" xmlns:inkscape="http://www.inkscape.org/namespaces/inkscape" xmlns:rdf="http://www.w3.org/1999/02/22-rdf-syntax-ns#" xmlns:sodipodi="http://sodipodi.sourceforge.net/DTD/sodipodi-0.dtd" xmlns:svg="http://www.w3.org/2000/svg">
	<g transform="translate(0,-952.36218)">
		<g id="XMLID_1_">
			<g>
				<path class="st1" d="M85.1,975.1c0.2,1.1-0.5,2.1-1.6,2.3l-5.3,1.4c-0.1,0-0.2,0.1-0.3,0.1c-1.1,0.2-2.1-0.5-2.3-1.6
					c-0.2-1.1,0.5-2.1,1.6-2.3l5.3-1.4c0.1,0,0.2-0.1,0.3-0.1c0.1,0,0.2,0,0.3,0C84.1,973.4,85,974.1,85.1,975.1z"/>
				<path class="st1" d="M79.6,958.6c1,0.6,1.3,1.8,0.7,2.7l-5.2,9c0,0.1-0.1,0.2-0.1,0.3c-0.6,0.9-1.9,1.2-2.8,0.5
					c-0.9-0.6-1.2-1.9-0.5-2.8l5.2-9c0.3-0.6,0.9-1,1.6-1C78.8,958.3,79.2,958.4,79.6,958.6z"/>
				<path class="st1" d="M77.8,988c0.3,1.1-0.3,2.2-1.4,2.5c-1.1,0.3-2.2-0.4-2.5-1.4l-1.4-5.3c-0.1-0.2-0.1-0.4-0.1-0.6
					c0-1.1,0.9-2,2.1-2c0.9,0,1.7,0.7,1.9,1.5L77.8,988C77.8,988,77.8,988,77.8,988z"/>
				<path class="st1" d="M70.7,976c0.1,1.1-0.7,2.1-1.8,2.2l-4.4,7.7c1.5,1,2.8,2.2,4.1,3.4c0.5,0.5,0.7,1.3,0.5,2l-2.3,7.5
					c7.2,9.1,8.6,22.2,2.4,32.9c-8,14-25.8,18.8-39.8,10.8c-13.9-8.1-18.7-26-10.6-40c6.1-10.7,18.1-16.1,29.5-14.4l5.3-5.8
					c0.3-0.3,0.8-0.6,1.2-0.6c0.3,0,0.5,0,0.8,0.1c1.8,0.5,3.6,1.2,5.2,2.1l4.8-8.3c0.4-0.7,1-1.1,1.7-1.3c0.2,0,0.4-0.1,0.5-0.1
					c0.6,0,1.1,0.1,1.6,0.4C70.3,974.8,70.6,975.4,70.7,976z M65.8,1029.7c7-12.1,2.9-27.6-9.1-34.6c-4.1-2.4-8.6-3.5-13.1-3.4
					c-8.5,0.2-16.6,4.7-21.2,12.7c-7,12.1-2.9,27.5,9.2,34.5C43.6,1046,58.9,1041.8,65.8,1029.7z M63.7,995.4l1.2-3.9
					c-1.3-1.2-2.7-2.4-4.3-3.3v0c-1.5-0.9-3.2-1.5-4.9-2.1l-2.8,3c2,0.6,3.9,1.5,5.8,2.6C60.5,992.7,62.2,994,63.7,995.4z"/>
				<path class="st1" d="M67.3,968.6c0.3,1.1-0.4,2.2-1.4,2.4c-1.1,0.3-2.2-0.4-2.4-1.4l-1.4-5.3c0-0.1-0.1-0.3-0.1-0.4
					c-0.1-1.1,0.8-2.1,1.9-2.1c1-0.1,1.8,0.6,2.1,1.5L67.3,968.6z"/>
				<path class="st3" d="M56.7,995.1c12,7,16.1,22.4,9.1,34.6c-7,12.1-22.3,16.3-34.3,9.3c-12-7-16.1-22.4-9.2-34.5
					c4.6-8,12.7-12.5,21.2-12.7C48,991.7,52.5,992.7,56.7,995.1z M39.1,1036c0.6-0.9,0.4-2.2-0.5-2.8c-0.1-0.1-0.1-0.1-0.2-0.1
					c-9.3-5.4-12.5-17.4-7.1-26.8c0.6-0.9,0.3-2.2-0.7-2.8c-0.3-0.2-0.7-0.3-1-0.3c-0.7,0-1.4,0.4-1.8,1
					c-6.5,11.3-2.7,25.7,8.5,32.2C37.2,1037.2,38.5,1036.9,39.1,1036z"/>
				<path class="st3" d="M64.9,991.5l-1.2,3.9c-1.5-1.4-3.2-2.7-5-3.7c-1.9-1.1-3.8-1.9-5.8-2.6l2.8-3c1.7,0.6,3.4,1.2,4.9,2.1v0
					C62.2,989.1,63.6,990.2,64.9,991.5z"/>
				<path class="st1" d="M38.6,1033.2c0.9,0.6,1.1,1.9,0.5,2.8c-0.6,0.9-1.9,1.2-2.8,0.5c-11.2-6.5-15-20.9-8.5-32.2
					c0.3-0.6,1-1,1.8-1c0.4,0,0.7,0.1,1,0.3c0.9,0.6,1.2,1.8,0.7,2.8c-5.4,9.4-2.2,21.4,7.1,26.8
					C38.4,1033.2,38.5,1033.2,38.6,1033.2z"/>
			</g>
			<g>
				<path class="st4" d="M78.4,958.3c-0.7,0.1-1.2,0.5-1.6,1l-5.2,9c-0.6,0.9-0.4,2.2,0.5,2.8c0.9,0.6,2.2,0.4,2.8-0.5
					c0.1-0.1,0.1-0.2,0.1-0.3l5.2-9c0.6-1,0.2-2.2-0.7-2.7C79.2,958.4,78.8,958.3,78.4,958.3z"/>
				<path class="st4" d="M63.8,961.7c-1.1,0.1-1.9,1-1.9,2.1c0,0.1,0,0.3,0.1,0.4l1.4,5.3c0.3,1.1,1.4,1.7,2.4,1.4
					c1.1-0.3,1.7-1.4,1.4-2.4l-1.4-5.3C65.7,962.3,64.8,961.7,63.8,961.7z"/>
				<path class="st4" d="M83.1,973.4c-0.1,0-0.2,0-0.3,0c-0.1,0-0.2,0.1-0.3,0.1l-5.3,1.4c-1.1,0.2-1.8,1.3-1.6,2.3
					c0.2,1.1,1.3,1.8,2.3,1.6c0.1,0,0.2,0,0.3-0.1l5.3-1.4c1.1-0.2,1.8-1.2,1.6-2.3C85,974.1,84.1,973.4,83.1,973.4z"/>
				<path class="st4" d="M68.1,974.1c-0.2,0-0.3,0-0.5,0.1c-0.7,0.2-1.3,0.6-1.7,1.3l-4.8,8.3c-1.7-0.8-3.4-1.6-5.2-2.1
					c-0.2-0.1-0.5-0.1-0.8-0.1c-0.5,0.1-0.9,0.3-1.2,0.6l-5.3,5.8c-11.5-1.7-23.4,3.7-29.5,14.4c-8,14-3.3,31.9,10.6,40
					c13.9,8.1,31.7,3.2,39.8-10.8c6.2-10.7,4.8-23.8-2.4-32.9l2.3-7.5c0.2-0.7,0-1.5-0.5-2c-1.3-1.3-2.7-2.4-4.1-3.4l4.4-7.7
					c1.1-0.1,1.9-1.1,1.8-2.2c-0.1-0.6-0.4-1.2-1-1.5C69.2,974.2,68.6,974.1,68.1,974.1z"/>
				<path class="st4" d="M74.4,981.1c-1.1,0-2,0.8-2.1,2c0,0.2,0,0.4,0.1,0.6l1.4,5.3c0.3,1.1,1.4,1.7,2.5,1.4
					c1.1-0.3,1.7-1.4,1.4-2.5c0,0,0,0,0,0l-1.4-5.3C76.1,981.8,75.3,981.1,74.4,981.1z"/>
				<path class="st4" d="M55.8,986.1c1.7,0.6,3.4,1.2,4.9,2.1v0c1.5,0.9,2.9,2.1,4.3,3.3l-1.2,3.9c-1.5-1.4-3.2-2.7-5-3.7
					c-1.9-1.1-3.8-1.9-5.8-2.6L55.8,986.1z"/>
				<path class="st4" d="M43.6,991.8c4.5-0.1,9,1,13.1,3.4c12,7,16.1,22.4,9.1,34.6c-7,12.1-22.3,16.3-34.3,9.3
					c-12-7-16.1-22.4-9.2-34.5C26.9,996.5,35.1,992,43.6,991.8z"/>
				<path class="st4" d="M29.5,1003.3c-0.7,0-1.4,0.4-1.8,1c-6.5,11.3-2.7,25.7,8.5,32.2c0.9,0.6,2.2,0.4,2.8-0.5
					c0.6-0.9,0.4-2.2-0.5-2.8c-0.1-0.1-0.1-0.1-0.2-0.1c-9.3-5.4-12.5-17.4-7.1-26.8c0.6-0.9,0.3-2.2-0.7-2.8
					C30.2,1003.4,29.9,1003.3,29.5,1003.3z"/>
			</g>
		</g>
	</g>
</g>
</svg>
