<?xml version="1.0" encoding="utf-8"?>
<!-- Generator: Adobe Illustrator 23.0.3, SVG Export Plug-In . SVG Version: 6.00 Build 0)  -->
<svg version="1.1" id="Layer_1" xmlns="http://www.w3.org/2000/svg" xmlns:xlink="http://www.w3.org/1999/xlink" x="0px" y="0px"
	 viewBox="0 0 20 25" style="enable-background:new 0 0 20 25;" xml:space="preserve">
<style type="text/css">
	.st0{fill:#6164BF;}
</style>
<g>
	<path class="st0" d="M10,2L5.8,6.2H2.8C2.3,6.2,2,6.6,2,7c0,0.5,0.3,0.8,0.8,0.8h1.3L2.5,9.5c-0.7,0.7-0.7,1.7,0,2.3l4.8,4.8
		c1,0.9,2.1,0.3,2.3,0L17.2,9L10,2z M8.4,15.4L8.4,15.4l-4.8-4.7l2.8-2.8h3.1c0.5,0,0.8-0.3,0.8-0.8S10,6.2,9.5,6.2H8.1L10,4.3
		l4.8,4.8L8.4,15.4L8.4,15.4z"/>
	<path class="st0" d="M17.9,10.4c-0.5,0-0.8,0.3-0.8,0.8v1.7c0,0.5,0.3,0.8,0.8,0.8s0.8-0.3,0.8-0.8v-1.7
		C18.8,10.8,18.4,10.4,17.9,10.4z"/>
	<path class="st0" d="M17.9,15.4c-0.5,0-0.8,0.3-0.8,0.8v1.7c0,0.5,0.3,0.8,0.8,0.8s0.8-0.3,0.8-0.8v-1.7
		C18.8,15.8,18.4,15.4,17.9,15.4z"/>
</g>
</svg>
