<?xml version="1.0" encoding="utf-8"?>
<!-- Generator: Adobe Illustrator 23.0.3, SVG Export Plug-In . SVG Version: 6.00 Build 0)  -->
<svg version="1.1" xmlns="http://www.w3.org/2000/svg" xmlns:xlink="http://www.w3.org/1999/xlink" x="0px" y="0px"
	 viewBox="0 0 20 25" style="enable-background:new 0 0 20 25;" xml:space="preserve">
<style type="text/css">
	.st0{opacity:0.15;}
	.st1{fill:#F2EDBD;}
	.st2{fill:#6164BF;}
</style>
<g id="Layer_2">
	<g class="st0">
		<g id="XMLID_2_">
			<g>
				<path d="M17.8,20.2v1.7c0,0.5-0.3,0.8-0.8,0.8c-0.5,0-0.8-0.3-0.8-0.8v-1.7c0-0.5,0.3-0.8,0.8-0.8
					C17.4,19.4,17.8,19.8,17.8,20.2z"/>
				<path d="M17.8,15.2v1.7c0,0.5-0.3,0.8-0.8,0.8c-0.5,0-0.8-0.3-0.8-0.8v-1.7c0-0.5,0.3-0.8,0.8-0.8
					C17.4,14.4,17.8,14.8,17.8,15.2z"/>
				<path d="M16.2,13l-7.5,7.5c-0.2,0.3-1.3,0.9-2.3,0l-4.8-4.8c-0.7-0.7-0.7-1.7,0-2.4l1.6-1.6H1.8C1.3,11.9,1,11.5,1,11
					c0-0.4,0.3-0.8,0.8-0.8h2.9L9,6L16.2,13z M7.4,19.4l6.3-6.3L9,8.4l-1.8,1.8h1.4c0.5,0,0.8,0.3,0.8,0.8c0,0.5-0.3,0.8-0.8,0.8
					H5.4l-2.8,2.9L7.4,19.4z"/>
				<path d="M13.7,13.1l-6.3,6.3l-4.8-4.7l2.8-2.9h3.1c0.5,0,0.8-0.3,0.8-0.8c0-0.5-0.3-0.8-0.8-0.8H7.1L9,8.4L13.7,13.1z"/>
			</g>
			<g>
			</g>
		</g>
	</g>
</g>
<g id="Layer_1">
	<g>
		<g id="XMLID_1_">
			<g>
				<path class="st1" d="M10.4,7c0-0.5-0.3-0.8-0.8-0.8H8.1L10,4.3l4.8,4.8l-6.3,6.3l-4.8-4.7l2.8-2.8h3.1C10,7.9,10.4,7.5,10.4,7z"
					/>
				<path class="st2" d="M18.8,16.2v1.7c0,0.5-0.3,0.8-0.8,0.8c-0.5,0-0.8-0.3-0.8-0.8v-1.7c0-0.5,0.3-0.8,0.8-0.8
					C18.4,15.4,18.8,15.8,18.8,16.2z"/>
				<path class="st2" d="M18.8,11.2v1.7c0,0.5-0.3,0.8-0.8,0.8c-0.5,0-0.8-0.3-0.8-0.8v-1.7c0-0.5,0.3-0.8,0.8-0.8
					C18.4,10.4,18.8,10.8,18.8,11.2z"/>
				<path class="st2" d="M6.4,7.9l-2.8,2.8l4.8,4.7l6.3-6.3L10,4.3L8.1,6.2h1.4c0.5,0,0.8,0.3,0.8,0.8c0,0.5-0.3,0.8-0.8,0.8H6.4z
					 M9.6,16.6c-0.2,0.3-1.3,0.9-2.3,0l-4.8-4.8c-0.7-0.7-0.7-1.7,0-2.4l1.6-1.6H2.8C2.3,7.9,2,7.5,2,7c0-0.4,0.3-0.8,0.8-0.8h2.9
					L10,2l7.2,7L9.6,16.6z"/>
			</g>
			<g>
			</g>
		</g>
	</g>
</g>
</svg>
