<?xml version="1.0" encoding="utf-8"?>
<!-- Generator: Adobe Illustrator 23.0.3, SVG Export Plug-In . SVG Version: 6.00 Build 0)  -->
<svg version="1.1" id="Layer_1" xmlns="http://www.w3.org/2000/svg" xmlns:xlink="http://www.w3.org/1999/xlink" x="0px" y="0px"
	 viewBox="0 0 512 640" style="enable-background:new 0 0 512 640;" xml:space="preserve">
<style type="text/css">
	.st0{fill:#6164BF;}
</style>
<g id="XMLID_1_">
	<g>
		<path class="st0" d="M435.5,173.1c8.6,6,10.6,17.9,4.3,26.2L266.4,435.6c-3.5,4.9-9.1,7.7-15.1,7.7h-59.7c-3.9,0-7.6-1.2-10.8-3.4
			L76.4,366.5c-8.6-6-10.5-17.9-4.3-26.4l194-264c6-8.2,17.6-10.1,25.9-4.2L435.5,173.1z M336.3,277.5l62.1-84.7l-112.9-79.6
			l-62.2,84.6L336.3,277.5z M241.9,406l72.1-98.3L201.1,228l-87.3,119l83.9,59H241.9z"/>
	</g>
	<g>
	</g>
</g>
</svg>
