<?xml version="1.0" encoding="utf-8"?>
<!-- Generator: Adobe Illustrator 23.0.3, SVG Export Plug-In . SVG Version: 6.00 Build 0)  -->
<svg version="1.1" xmlns="http://www.w3.org/2000/svg" xmlns:xlink="http://www.w3.org/1999/xlink" x="0px" y="0px"
	 viewBox="0 0 512 640" style="enable-background:new 0 0 512 640;" xml:space="preserve">
<style type="text/css">
	.st0{opacity:0.15;}
	.st1{fill:#F2EDBD;}
	.st2{fill:#6164BF;}
</style>
<g id="Layer_2">
	<g id="XMLID_2_" class="st0">
		<g>
			<path d="M462.9,249.6c8.6,6,10.6,17.9,4.3,26.2L293.8,512.1c-3.5,4.9-9.1,7.7-15.1,7.7H219c-3.9,0-7.6-1.2-10.8-3.4L103.8,443
				c-8.6-6-10.5-17.9-4.3-26.4l194-264c6-8.2,17.6-10.1,25.9-4.2L462.9,249.6z M363.7,354l62.1-84.7l-112.9-79.6l-62.2,84.6
				L363.7,354z M269.3,482.5l72.1-98.3l-112.9-79.7l-87.3,119l83.9,59H269.3z"/>
			<polygon points="425.8,269.3 363.7,354 250.7,274.3 312.9,189.7 			"/>
			<polygon points="341.4,384.2 269.3,482.5 225.1,482.5 141.2,423.5 228.5,304.5 			"/>
		</g>
		<g>
		</g>
	</g>
</g>
<g id="Layer_1">
	<g id="XMLID_1_">
		<g>
			<polygon class="st1" points="314,307.7 241.9,406 197.7,406 113.8,347 201.1,228 			"/>
			<polygon class="st1" points="398.4,192.8 336.3,277.5 223.3,197.8 285.5,113.2 			"/>
			<path class="st2" d="M435.5,173.1c8.6,6,10.6,17.9,4.3,26.2L266.4,435.6c-3.5,4.9-9.1,7.7-15.1,7.7h-59.7
				c-3.9,0-7.6-1.2-10.8-3.4L76.4,366.5c-8.6-6-10.5-17.9-4.3-26.4l194-264c6-8.2,17.6-10.1,25.9-4.2L435.5,173.1z M336.3,277.5
				l62.1-84.7l-112.9-79.6l-62.2,84.6L336.3,277.5z M241.9,406l72.1-98.3L201.1,228l-87.3,119l83.9,59H241.9z"/>
		</g>
		<g>
		</g>
	</g>
</g>
</svg>
