<?xml version="1.0" encoding="utf-8"?>
<!-- Generator: Adobe Illustrator 23.0.3, SVG Export Plug-In . SVG Version: 6.00 Build 0)  -->
<svg version="1.1" id="Layer_1" xmlns="http://www.w3.org/2000/svg" xmlns:xlink="http://www.w3.org/1999/xlink" x="0px" y="0px"
	 viewBox="0 0 24 30" style="enable-background:new 0 0 24 30;" xml:space="preserve">
<style type="text/css">
	.st0{fill:#6164BF;stroke:#6164BF;stroke-width:0.5;stroke-miterlimit:10;}
</style>
<path class="st0" d="M23.4,12.1c-0.3-0.3-0.6-0.6-0.9-0.9c-0.2-0.1-0.3-0.2-0.5-0.3c-0.6-0.3-1-0.2-1.3,0l0,0
	c0.1-0.2,0.2-0.3,0.2-0.5c0.1-0.4-0.1-0.9-0.4-1.2C20.3,9,20.2,8.9,20,8.7l-0.1-0.1c-0.2-0.2-0.4-0.4-0.6-0.6
	c-0.3-0.3-0.5-0.5-0.8-0.8c-2.8-2.8-7.1-1.8-8-1.4C10.3,5.8,10,6,10,6.3c0,0.3,0.3,0.5,1.3,1.1c0.7,0.5,1.6,1,2.1,1.4l0,0l0,0
	c-0.4,0.5-0.6,1.2-0.2,1.7l0.2,0.2L8.2,16c-0.3-0.3-0.9-0.3-1.3,0c-3.7,3.4-5.8,5.4-6.3,5.9c-0.8,0.8-0.8,1.8-0.1,2.6
	C0.7,24.6,1,25,1.4,25.4s0.7,0.7,0.8,0.8c0.4,0.3,0.8,0.5,1.2,0.5c0.6,0,1.1-0.3,1.4-0.6c0.4-0.4,2.5-2.5,5.9-6.3
	c0.3-0.3,0.3-0.8,0-1.2l5.3-5.2l0.1,0.1l0,0l0,0c0.5,0.5,1.3,0.5,1.9-0.1c-0.6,0.7-0.5,1.4,0.1,2c0.3,0.3,0.7,0.7,1,1s0.7,0.4,1,0.4
	c0.4,0,0.7-0.2,1-0.5c0.7-0.7,1.5-1.5,2.2-2.2c0.6-0.6,0.6-1.5,0-2.1L23.4,12.1z M10.2,19.3c-3.4,3.8-5.5,5.9-5.9,6.2
	c-0.3,0.3-1,0.6-1.6,0.1c-0.1-0.1-0.5-0.4-0.8-0.8c-0.4-0.4-0.7-0.7-0.8-0.8c-0.2-0.2-0.7-0.7,0.1-1.6C1.6,22,3.6,20,7.6,16.5h0.1
	l2.5,2.5C10.2,19.1,10.2,19.2,10.2,19.3z M10.3,18l-1.5-1.5l5.2-5.2l1.5,1.5L10.3,18z M22.9,13.8c-0.7,0.7-1.5,1.5-2.2,2.2
	c-0.3,0.3-0.7,0.3-0.9,0c-0.3-0.3-0.7-0.7-1-1s-0.3-0.6,0-1c0.3-0.3,0.3-0.8,0-1.1c-0.2-0.2-0.4-0.3-0.6-0.3s-0.4,0.1-0.5,0.2
	c-0.2,0.2-0.6,0.5-0.9,0.2l0,0l0,0l-3-3c-0.1-0.1,0-0.4,0.2-0.6c0.3-0.4,0.3-0.7-0.1-1.1c-0.5-0.5-1.4-1.1-2.2-1.5
	c-0.2-0.1-0.4-0.2-0.5-0.3c1.3-0.3,4.5-0.8,6.7,1.4c0.3,0.3,0.5,0.5,0.8,0.8c0.2,0.2,0.4,0.4,0.6,0.6l0.1,0.1
	c0.2,0.2,0.3,0.3,0.5,0.5c0.2,0.3,0.2,0.4,0.2,0.6c0,0,0,0.1-0.1,0.2c-0.1,0.2-0.3,0.6,0.2,1c0.4,0.4,0.8,0.3,1,0.1
	c0.1-0.1,0.2-0.1,0.5,0c0.1,0,0.2,0.1,0.3,0.2c0.3,0.3,0.6,0.6,0.9,0.9L23,13C23.2,13.1,23.2,13.5,22.9,13.8z"/>
</svg>
