<?xml version="1.0" encoding="utf-8"?>
<!-- Generator: Adobe Illustrator 23.0.3, SVG Export Plug-In . SVG Version: 6.00 Build 0)  -->
<svg version="1.1" xmlns="http://www.w3.org/2000/svg" xmlns:xlink="http://www.w3.org/1999/xlink" x="0px" y="0px"
	 viewBox="0 0 24 30" style="enable-background:new 0 0 24 30;" xml:space="preserve">
<style type="text/css">
	.st0{opacity:0.3;}
	.st1{fill:#515151;}
	.st2{fill:#6164BF;}
	.st3{fill:#F2EDBD;}
</style>
<g id="Layer_2">
	<g id="XMLID_3_" class="st0">
		<g>
			<path class="st1" d="M23.5,13.5c0.6,0.6,0.6,1.5,0,2.1c-0.7,0.7-1.5,1.5-2.2,2.2c-0.3,0.3-0.7,0.5-1,0.5c-0.4,0-0.7-0.1-1-0.4
				c-0.4-0.3-0.7-0.7-1-1c-0.6-0.6-0.6-1.4-0.1-2c-0.6,0.5-1.4,0.6-1.9,0.1c0,0,0,0,0,0c0,0,0,0,0,0L16,14.6l-5.2,5.2
				c0.3,0.4,0.3,0.9,0,1.2c-3.4,3.8-5.5,5.9-5.9,6.3c-0.3,0.3-0.8,0.6-1.4,0.6c-0.4,0-0.9-0.2-1.2-0.5c-0.1-0.1-0.5-0.5-0.9-0.8
				c-0.4-0.4-0.7-0.7-0.8-0.8c-0.7-0.8-0.7-1.8,0.1-2.6c0.5-0.5,2.6-2.5,6.3-5.9c0.3-0.3,0.9-0.3,1.2,0l5.2-5.2l-0.2-0.2
				c-0.5-0.5-0.2-1.2,0.2-1.7c0,0,0,0,0,0c0,0,0,0,0,0c-0.4-0.4-1.3-1-2.1-1.4C10.2,8,10,7.8,10,7.5c0-0.3,0.3-0.4,0.4-0.5
				c0.9-0.4,5.2-1.4,8,1.4c0.2,0.3,0.5,0.5,0.8,0.8c0.2,0.2,0.4,0.4,0.6,0.6l0.1,0.1c0.2,0.2,0.3,0.3,0.5,0.5
				c0.4,0.4,0.5,0.8,0.4,1.2c0,0.1-0.1,0.3-0.2,0.5c0,0,0,0,0,0c0.3-0.2,0.7-0.3,1.3,0c0.2,0.1,0.3,0.2,0.5,0.4
				c0.3,0.3,0.6,0.6,0.9,0.9L23.5,13.5z M22.9,15c0.3-0.3,0.3-0.7,0-1l-0.1-0.1c-0.3-0.3-0.6-0.6-0.9-0.9c-0.1-0.1-0.2-0.2-0.3-0.2
				c-0.3-0.1-0.4-0.1-0.5,0c-0.2,0.2-0.6,0.3-1-0.1c-0.1-0.1-0.1-0.1-0.1-0.2c-0.2-0.4-0.1-0.7,0-0.8c0.1-0.1,0.1-0.2,0.1-0.2
				c0-0.1,0-0.3-0.2-0.6c-0.2-0.2-0.3-0.3-0.5-0.5l-0.1-0.1c-0.2-0.2-0.4-0.4-0.6-0.6c-0.3-0.2-0.5-0.5-0.8-0.8
				c-2.2-2.2-5.4-1.7-6.7-1.4c0.2,0.1,0.4,0.2,0.6,0.3c0.8,0.5,1.7,1.1,2.2,1.5c0.4,0.4,0.4,0.7,0.1,1.1c-0.2,0.3-0.3,0.6-0.2,0.6
				l3,3c0,0,0,0,0,0s0,0,0,0c0.3,0.3,0.7,0,0.8-0.1c0.2-0.1,0.4-0.2,0.5-0.2c0.2,0,0.4,0.1,0.6,0.2c0.3,0.3,0.3,0.8,0,1.1
				c-0.3,0.3-0.3,0.6,0,1c0.3,0.4,0.7,0.7,1,1c0.3,0.3,0.6,0.3,1,0C21.5,16.5,22.2,15.7,22.9,15z M10.3,19.3l5.2-5.2L14,12.6
				l-5.2,5.2L10.3,19.3z M10.2,20.5c0.1,0,0.1-0.1,0-0.2l-2.5-2.5c0,0-0.1,0-0.1,0c-3.9,3.5-5.9,5.5-6.3,5.9C0.5,24.5,1,25,1.2,25.2
				C1.3,25.3,1.6,25.7,2,26s0.7,0.7,0.8,0.8C3.3,27.3,4,27,4.3,26.7C4.7,26.3,6.8,24.2,10.2,20.5z"/>
			<path class="st1" d="M22.9,14c0.3,0.3,0.3,0.7,0,1c-0.7,0.7-1.5,1.5-2.2,2.2c-0.3,0.3-0.6,0.3-1,0c-0.3-0.3-0.7-0.7-1-1
				c-0.3-0.3-0.3-0.6,0-1c0.3-0.4,0.3-0.8,0-1.1c-0.1-0.2-0.4-0.2-0.6-0.2l1.8-1.3c0,0.1,0.1,0.1,0.1,0.2c0.4,0.4,0.8,0.3,1,0.1
				c0.1-0.1,0.2-0.1,0.5,0c0.1,0.1,0.2,0.1,0.3,0.2c0.3,0.3,0.6,0.6,0.9,0.9L22.9,14z"/>
			<path class="st1" d="M19.9,11c0.2,0.3,0.2,0.4,0.2,0.6c0,0,0,0.1-0.1,0.2c-0.1,0.2-0.2,0.5,0,0.8l-1.8,1.3
				c-0.2,0-0.4,0.1-0.5,0.2c-0.1,0.1-0.6,0.4-0.8,0.1c0,0,0,0,0,0s0,0,0,0l-3-3c-0.1-0.1,0-0.4,0.2-0.6c0.3-0.4,0.3-0.7-0.1-1.1
				c-0.5-0.5-1.5-1.1-2.2-1.5c-0.2-0.1-0.4-0.2-0.6-0.3c1.3-0.3,4.5-0.8,6.7,1.4c0.3,0.3,0.5,0.5,0.8,0.8c0.2,0.2,0.4,0.4,0.6,0.6
				l0.1,0.1C19.5,10.6,19.7,10.8,19.9,11z"/>
			
				<rect x="8.4" y="14.9" transform="matrix(0.7071 -0.7071 0.7071 0.7071 -7.6953 13.2332)" class="st1" width="7.4" height="2.1"/>
			<path class="st1" d="M10.2,20.3c0.1,0,0.1,0.1,0,0.2c-3.4,3.8-5.4,5.9-5.9,6.2c-0.3,0.3-1,0.6-1.6,0.1C2.7,26.7,2.3,26.4,2,26
				s-0.7-0.7-0.8-0.8C1,25,0.5,24.5,1.2,23.7c0.4-0.4,2.4-2.4,6.3-5.9c0,0,0.1,0,0.1,0L10.2,20.3z"/>
		</g>
		<g>
		</g>
	</g>
</g>
<g id="Layer_1">
	<g id="XMLID_1_">
		<g>
			<path class="st2" d="M23.5,8.3c0.6,0.6,0.6,1.5,0,2.1c-0.7,0.7-1.5,1.5-2.2,2.2c-0.3,0.3-0.7,0.5-1,0.5c-0.4,0-0.7-0.2-1-0.5
				c-0.3-0.3-0.7-0.7-1-1c-0.6-0.6-0.6-1.4-0.1-2c-0.6,0.6-1.4,0.6-1.9,0.1c0,0,0,0,0,0c0,0,0,0,0,0L16,9.4l-5.2,5.2
				c0.3,0.4,0.3,0.9,0,1.2c-3.4,3.8-5.5,5.9-5.9,6.3c-0.3,0.3-0.8,0.6-1.4,0.6c-0.4,0-0.9-0.2-1.2-0.5c-0.1-0.1-0.5-0.5-0.9-0.8
				C1,21,0.7,20.6,0.6,20.5c-0.7-0.8-0.7-1.8,0.1-2.6c0.5-0.5,2.6-2.5,6.3-5.9c0.3-0.3,0.9-0.3,1.2,0l5.2-5.2l-0.2-0.2
				c-0.5-0.5-0.2-1.2,0.2-1.7c0,0,0,0,0,0c0,0,0,0,0,0c-0.4-0.4-1.3-1-2.1-1.4C10.2,2.8,10,2.6,10,2.3c0-0.3,0.3-0.4,0.4-0.5
				c0.9-0.4,5.2-1.4,8,1.4c0.2,0.3,0.5,0.5,0.8,0.8c0.2,0.2,0.4,0.4,0.6,0.6l0.1,0.1c0.2,0.2,0.3,0.3,0.5,0.5
				c0.4,0.4,0.5,0.8,0.4,1.2c0,0.2-0.1,0.3-0.2,0.5c0,0,0,0,0,0c0.3-0.2,0.7-0.3,1.3,0c0.2,0.1,0.3,0.2,0.5,0.3
				c0.3,0.3,0.6,0.6,0.9,0.9L23.5,8.3z M22.9,9.8c0.3-0.3,0.3-0.7,0-1l-0.1-0.1c-0.3-0.3-0.6-0.6-0.9-0.9c-0.1-0.1-0.2-0.2-0.3-0.2
				c-0.3-0.1-0.4-0.1-0.5,0c-0.2,0.2-0.6,0.3-1-0.1c-0.4-0.4-0.3-0.8-0.1-1c0.1-0.1,0.1-0.2,0.1-0.2c0-0.1,0-0.3-0.2-0.6
				c-0.2-0.2-0.3-0.3-0.5-0.5l-0.1-0.1c-0.2-0.2-0.4-0.4-0.6-0.6c-0.3-0.2-0.5-0.5-0.8-0.8c-2.1-2.2-5.4-1.7-6.6-1.4
				c0.2,0.1,0.4,0.2,0.6,0.3c0.8,0.5,1.7,1.1,2.2,1.5C14.3,4.6,14.3,5,14,5.4c-0.2,0.3-0.3,0.6-0.2,0.6l3,3c0,0,0,0,0,0c0,0,0,0,0,0
				c0.3,0.3,0.7,0,0.8-0.1c0.2-0.1,0.4-0.2,0.5-0.2c0.2,0,0.4,0.1,0.6,0.2c0.3,0.3,0.3,0.8,0,1.1c-0.3,0.3-0.3,0.6,0,1
				c0.3,0.3,0.7,0.7,1,1c0.3,0.3,0.6,0.3,0.9,0C21.5,11.3,22.2,10.5,22.9,9.8z M10.3,14l5.2-5.2L14,7.3l-5.2,5.2L10.3,14z
				 M10.2,15.3c0-0.1,0-0.1,0-0.2l-2.5-2.5c0,0-0.1,0-0.1,0c-3.9,3.5-6,5.5-6.3,5.9C0.5,19.2,1,19.8,1.2,20c0.1,0.1,0.4,0.5,0.8,0.8
				c0.3,0.4,0.7,0.7,0.8,0.8c0.6,0.5,1.2,0.2,1.6-0.1C4.7,21.1,6.8,19,10.2,15.3z"/>
			<path class="st3" d="M22.9,8.8c0.3,0.3,0.3,0.7,0,1c-0.7,0.7-1.5,1.5-2.2,2.2c-0.3,0.3-0.6,0.3-0.9,0c-0.3-0.3-0.7-0.7-1-1
				c-0.3-0.3-0.3-0.6,0-1c0.3-0.4,0.3-0.8,0-1.1c-0.1-0.2-0.4-0.2-0.6-0.2c-0.2,0-0.4,0.1-0.5,0.2C17.5,9,17.1,9.3,16.8,9
				c0,0,0,0,0,0c0,0,0,0,0,0l-3-3c-0.1-0.1,0-0.4,0.2-0.6c0.3-0.4,0.3-0.7-0.1-1.1c-0.5-0.5-1.4-1.1-2.2-1.5
				c-0.2-0.1-0.4-0.2-0.6-0.3c1.3-0.3,4.5-0.8,6.6,1.4c0.3,0.3,0.5,0.5,0.8,0.8c0.2,0.2,0.4,0.4,0.6,0.6l0.1,0.1
				c0.2,0.2,0.3,0.3,0.5,0.5c0.2,0.3,0.2,0.4,0.2,0.6c0,0,0,0.1-0.1,0.2c-0.1,0.2-0.3,0.6,0.1,1c0.4,0.4,0.8,0.3,1,0.1
				c0.1-0.1,0.2-0.1,0.5,0c0.1,0.1,0.2,0.1,0.3,0.2c0.3,0.3,0.6,0.6,0.9,0.9L22.9,8.8z"/>
			<rect x="8.4" y="9.6" transform="matrix(0.7071 -0.7071 0.7071 0.7071 -4.0112 11.7062)" class="st3" width="7.4" height="2.1"/>
			<path class="st3" d="M10.2,15.1c0.1,0.1,0.1,0.1,0,0.2c-3.4,3.8-5.5,5.9-5.9,6.2c-0.3,0.3-1,0.6-1.6,0.1
				c-0.1-0.1-0.5-0.5-0.8-0.8c-0.4-0.3-0.7-0.7-0.8-0.8c-0.2-0.2-0.7-0.7,0.1-1.5C1.6,18,3.7,16,7.6,12.5c0,0,0.1,0,0.1,0L10.2,15.1
				z"/>
		</g>
		<g>
		</g>
	</g>
</g>
</svg>
