<?xml version="1.0" encoding="utf-8"?>
<!-- Generator: Adobe Illustrator 23.0.3, SVG Export Plug-In . SVG Version: 6.00 Build 0)  -->
<svg version="1.1" id="Layer_1" xmlns="http://www.w3.org/2000/svg" xmlns:xlink="http://www.w3.org/1999/xlink" x="0px" y="0px"
	 viewBox="0 0 91 113.8" style="enable-background:new 0 0 91 113.8;" xml:space="preserve">
<style type="text/css">
	.st0{fill:#6164BF;}
</style>
<g>
	<g id="XMLID_3_">
		<g>
			<path class="st0" d="M83.2,30.8L83.2,30.8c0,2.5-1.1,5.5-3.3,7.8C66.3,52.1,52.6,65.4,39.1,78.9l-2.8,0.7H12.2
				c-1.7,0-3.2-1.2-3.2-2.9V51.8c0,0,0.5-1.5,1-2C23.6,36.2,37.2,22.7,50.8,9.1C53,6.9,56,5.9,58.8,5.9c2.9,0,5.9,1.2,8.1,3.4
				l13,13.1C82.1,24.6,83.2,27.5,83.2,30.8z M77,30.1c0-1.3-0.5-2.7-1.5-3.7l-13-12.9c-1-1-2.3-1.5-3.7-1.5c-1.3,0-2.7,0.5-3.7,1.5
				L50,18.7L70.3,39l5.2-5.2C76.5,32.8,77,31.4,77,30.1z M36.9,72.4L66,43.3l-3.7-3.7l-29,29.1L36.9,72.4z M59.7,37L52,29.3
				l-29.1,29l7.7,7.7L59.7,37z M49.3,26.7L45.6,23L16.6,52l3.7,3.7L49.3,26.7z M14.8,73.8h14.7L14.8,59.5V73.8z"/>
		</g>
		<g>
		</g>
	</g>
</g>
</svg>
