<?xml version="1.0" encoding="utf-8"?>
<!-- Generator: Adobe Illustrator 23.0.3, SVG Export Plug-In . SVG Version: 6.00 Build 0)  -->
<svg version="1.1" xmlns="http://www.w3.org/2000/svg" xmlns:xlink="http://www.w3.org/1999/xlink" x="0px" y="0px"
	 viewBox="0 0 91 113.8" style="enable-background:new 0 0 91 113.8;" xml:space="preserve">
<style type="text/css">
	.st0{opacity:0.15;}
	.st1{fill:#F2EDBD;}
	.st2{fill:#6164BF;}
</style>
<g id="Layer_2">
	<g class="st0">
		<g id="XMLID_2_">
			<g>
				<path d="M89.4,47.4L89.4,47.4c0,2.5-1.1,5.5-3.3,7.8C72.5,68.7,58.8,81.9,45.3,95.5l-2.8,0.7H18.4c-1.7,0-3.2-1.2-3.2-2.9V68.4
					c0,0,0.5-1.5,1-2C29.8,52.8,43.4,39.3,57,25.7c2.2-2.2,5.2-3.3,8.1-3.3c2.9,0,5.9,1.2,8.1,3.4l13,13.1
					C88.3,41.2,89.4,44.1,89.4,47.4z M83.2,46.7c0-1.3-0.5-2.7-1.5-3.7l-13-12.9c-1-1-2.3-1.5-3.7-1.5c-1.3,0-2.7,0.5-3.7,1.5
					l-5.1,5.2l20.3,20.3l5.2-5.2C82.7,49.4,83.2,48,83.2,46.7z M43.1,89l29.1-29.1l-3.7-3.7l-29,29.1L43.1,89z M65.9,53.6l-7.7-7.7
					l-29.1,29l7.7,7.7L65.9,53.6z M55.5,43.3l-3.7-3.7L22.8,68.6l3.7,3.7L55.5,43.3z M21,90.4h14.7L21,76.1V90.4z"/>
				<path d="M81.7,43c1,1,1.5,2.4,1.5,3.7c0,1.3-0.5,2.7-1.5,3.7l-5.2,5.2L56.2,35.2l5.1-5.2c1-1,2.4-1.5,3.7-1.5
					c1.4,0,2.7,0.5,3.7,1.5L81.7,43z"/>
				<polygon points="72.2,59.9 43.1,89 39.4,85.3 68.5,56.2 				"/>
				<polygon points="58.2,45.9 65.9,53.6 36.8,82.7 29.1,74.9 				"/>
				<polygon class="st1" points="51.8,39.6 55.5,43.3 26.5,72.3 22.8,68.6 				"/>
				<polygon points="35.7,90.4 21,90.4 21,76.1 				"/>
			</g>
			<g>
			</g>
		</g>
	</g>
</g>
<g id="Layer_1">
	<g>
		<g id="XMLID_3_">
			<g>
				<path class="st2" d="M83.2,30.8L83.2,30.8c0,2.5-1.1,5.5-3.3,7.8C66.3,52.1,52.6,65.4,39.1,78.9l-2.8,0.7H12.2
					c-1.7,0-3.2-1.2-3.2-2.9V51.8c0,0,0.5-1.5,1-2C23.6,36.2,37.2,22.7,50.8,9.1C53,6.9,56,5.9,58.8,5.9c2.9,0,5.9,1.2,8.1,3.4
					l13,13.1C82.1,24.6,83.2,27.5,83.2,30.8z M77,30.1c0-1.3-0.5-2.7-1.5-3.7l-13-12.9c-1-1-2.3-1.5-3.7-1.5c-1.3,0-2.7,0.5-3.7,1.5
					L50,18.7L70.3,39l5.2-5.2C76.5,32.8,77,31.4,77,30.1z M36.9,72.4L66,43.3l-3.7-3.7l-29,29.1L36.9,72.4z M59.7,37L52,29.3
					l-29.1,29l7.7,7.7L59.7,37z M49.3,26.7L45.6,23L16.6,52l3.7,3.7L49.3,26.7z M14.8,73.8h14.7L14.8,59.5V73.8z"/>
				<path class="st1" d="M75.5,26.4c1,1,1.5,2.4,1.5,3.7c0,1.3-0.5,2.7-1.5,3.7L70.3,39L50,18.7l5.1-5.2c1-1,2.4-1.5,3.7-1.5
					c1.4,0,2.7,0.5,3.7,1.5L75.5,26.4z"/>
				<polygon class="st1" points="66,43.3 36.9,72.4 33.2,68.7 62.3,39.7 				"/>
				<polygon class="st1" points="52,29.3 59.7,37 30.6,66.1 22.9,58.4 				"/>
				<polygon class="st1" points="45.6,23 49.3,26.7 20.3,55.7 16.6,52 				"/>
				<polygon class="st1" points="29.5,73.8 14.8,73.8 14.8,59.5 				"/>
			</g>
			<g>
			</g>
		</g>
	</g>
</g>
</svg>
