<?xml version="1.0" encoding="utf-8"?>
<!-- Generator: Adobe Illustrator 23.0.3, SVG Export Plug-In . SVG Version: 6.00 Build 0)  -->
<svg version="1.1" id="Layer_1" xmlns="http://www.w3.org/2000/svg" xmlns:xlink="http://www.w3.org/1999/xlink" x="0px" y="0px"
	 viewBox="0 0 100 125" style="enable-background:new 0 0 100 125;" xml:space="preserve">
<style type="text/css">
	.st0{fill:#6164BF;stroke:#6164BF;stroke-width:2;stroke-miterlimit:10;}
</style>
<path class="st0" d="M50,7.9c2.4,0,4.3,1.9,4.3,4.3v32.5h3.2V20.1c0-2.4,1.9-4.3,4.3-4.3s4.3,1.9,4.3,4.3v38.4h3.2V44.6
	c0-2.4,1.9-4.3,4.3-4.3s4.3,1.9,4.3,4.3v10.9l0,0v6.7l0,0v1.3c0,0.3,0,0.6-0.1,0.9C76.7,78.8,64.7,90.1,50,90.1
	c-15.4,0-27.9-12.5-27.9-27.9l0,0v-1.4v-5.3V48l0,0V31.7c0-2.4,1.9-4.3,4.3-4.3s4.3,1.9,4.3,4.3V48h3.2V16.8c0-2.4,1.9-4.3,4.3-4.3
	c2.4,0,4.3,1.9,4.3,4.3v27.9h3.2V12.2C45.7,9.8,47.6,7.9,50,7.9 M50,4.5c-3.6,0-6.7,2.5-7.5,5.9c-1.2-0.8-2.7-1.3-4.3-1.3
	c-4.2,0-7.7,3.5-7.7,7.7v8.4c-1.2-0.7-2.6-1.2-4.1-1.2c-4.2,0-7.7,3.5-7.7,7.7V48v7.5v5.3v1.4c0,17.3,14,31.3,31.3,31.3
	c16.2,0,29.8-12.6,31.2-28.6c0.1-0.4,0.1-0.9,0.1-1.4v-1.2l0,0v-0.1v-6.7V44.6c0-4.2-3.5-7.7-7.7-7.7c-1.5,0-2.9,0.4-4.1,1.2v-18
	c0-4.2-3.5-7.7-7.7-7.7c-1.5,0-2.9,0.4-4.1,1.2v-1.4C57.7,7.9,54.2,4.5,50,4.5L50,4.5z"/>
</svg>
