<?xml version="1.0" encoding="utf-8"?>
<!-- Generator: Adobe Illustrator 23.0.3, SVG Export Plug-In . SVG Version: 6.00 Build 0)  -->
<svg version="1.1" xmlns="http://www.w3.org/2000/svg" xmlns:xlink="http://www.w3.org/1999/xlink" x="0px" y="0px"
	 viewBox="0 0 100 125" style="enable-background:new 0 0 100 125;" xml:space="preserve">
<style type="text/css">
	.st0{opacity:0.15;}
	.st1{fill:none;stroke:#000000;stroke-miterlimit:10;}
	.st2{fill:#F2EDBD;}
	.st3{fill:#6164BF;}
	.st4{fill:none;stroke:#6164BF;stroke-miterlimit:10;}
</style>
<g id="Layer_2">
	<g id="XMLID_2_" class="st0">
		<g>
			<path d="M87.9,52.8c2.4,0,4.3,1.9,4.3,4.3V68v6.7c0,0,0,0,0,0v1.3c0,0.3,0,0.6-0.1,0.9C91,91.3,79,102.6,64.3,102.6
				c-15.4,0-27.9-12.5-27.9-27.9v-1.4V68v-7.5V44.2c0-2.4,1.9-4.3,4.3-4.3c2.4,0,4.3,1.9,4.3,4.3v16.3h3.2V29.3
				c0-2.4,1.9-4.3,4.3-4.3c2.4,0,4.3,1.9,4.3,4.3v27.9H60V24.7c0-2.4,1.9-4.3,4.3-4.3c2.4,0,4.3,1.9,4.3,4.3v32.5h3.2V32.6
				c0-2.4,1.9-4.3,4.3-4.3c2.4,0,4.3,1.9,4.3,4.3V71h3.2V57.1C83.6,54.7,85.5,52.8,87.9,52.8z"/>
			<path d="M92.2,57.1c0-2.4-1.9-4.3-4.3-4.3c-2.4,0-4.3,1.9-4.3,4.3V71h-3.2V32.6c0-2.4-1.9-4.3-4.3-4.3c-2.4,0-4.3,1.9-4.3,4.3
				v24.6h-3.2V24.7c0-2.4-1.9-4.3-4.3-4.3c-2.4,0-4.3,1.9-4.3,4.3v32.5h-3.2V29.3c0-2.4-1.9-4.3-4.3-4.3c-2.4,0-4.3,1.9-4.3,4.3
				v31.2H45V44.2c0-2.4-1.9-4.3-4.3-4.3c-2.4,0-4.3,1.9-4.3,4.3v16.3V68v5.3v1.4c0,15.4,12.5,27.9,27.9,27.9
				C79,102.6,91,91.3,92.1,77c0.1-0.3,0.1-0.6,0.1-0.9v-1.3c0,0,0,0,0,0V68V57.1z M87.9,49.4c4.2,0,7.7,3.5,7.7,7.7V68v6.7v0.1v0
				v1.2c0,0.4,0,0.9-0.1,1.4c-1.4,16.1-15,28.6-31.2,28.6C47,106,33,92,33,74.7v-1.4V68l0-7.5V44.2c0-4.2,3.5-7.7,7.7-7.7
				c1.5,0,2.9,0.4,4.1,1.2v-8.4c0-4.2,3.5-7.7,7.7-7.7c1.6,0,3.1,0.5,4.3,1.3c0.8-3.4,3.9-5.9,7.5-5.9c4.2,0,7.7,3.5,7.7,7.7v1.4
				c1.2-0.7,2.6-1.2,4.1-1.2c4.2,0,7.7,3.5,7.7,7.7v18C85,49.8,86.4,49.4,87.9,49.4z"/>
		</g>
		<g>
			<path class="st1" d="M64.3,20.4c2.4,0,4.3,1.9,4.3,4.3v32.5h3.2V32.6c0-2.4,1.9-4.3,4.3-4.3c2.4,0,4.3,1.9,4.3,4.3V71h3.2V57.1
				c0-2.4,1.9-4.3,4.3-4.3c2.4,0,4.3,1.9,4.3,4.3V68v6.7c0,0,0,0,0,0v1.3c0,0.3,0,0.6-0.1,0.9C91,91.3,79,102.6,64.3,102.6
				c-15.4,0-27.9-12.5-27.9-27.9v-1.4V68v-7.5V44.2c0-2.4,1.9-4.3,4.3-4.3c2.4,0,4.3,1.9,4.3,4.3v16.3h3.2V29.3
				c0-2.4,1.9-4.3,4.3-4.3c2.4,0,4.3,1.9,4.3,4.3v27.9H60V24.7C60,22.3,61.9,20.4,64.3,20.4z"/>
			<path class="st1" d="M64.3,17c-3.6,0-6.7,2.5-7.5,5.9c-1.2-0.8-2.7-1.3-4.3-1.3c-4.2,0-7.7,3.4-7.7,7.7v8.4
				c-1.2-0.7-2.6-1.2-4.1-1.2c-4.2,0-7.7,3.5-7.7,7.7v16.3l0,7.5v5.3v1.4C33,92,47,106,64.3,106c16.2,0,29.8-12.5,31.2-28.6
				c0.1-0.4,0.1-0.9,0.1-1.4v-1.2v0v-0.1V68V57.1c0-4.2-3.4-7.7-7.7-7.7c-1.5,0-2.9,0.4-4.1,1.2v-18c0-4.2-3.5-7.7-7.7-7.7
				c-1.5,0-2.9,0.4-4.1,1.2v-1.4C72,20.4,68.5,17,64.3,17z"/>
		</g>
	</g>
</g>
<g id="Layer_1">
	<g id="XMLID_1_">
		<g>
			<path class="st2" d="M77.9,62.3v1.3c0,0.3,0,0.6-0.1,0.9C76.7,78.8,64.7,90.1,50,90.1c-15.4,0-27.9-12.5-27.9-27.9v-1.4v-5.3V48
				V31.7c0-2.4,1.9-4.3,4.3-4.3c2.4,0,4.3,1.9,4.3,4.3V48h3.2V16.8c0-2.4,1.9-4.3,4.3-4.3c2.4,0,4.3,1.9,4.3,4.3v27.9h3.2V12.2
				c0-2.4,1.9-4.3,4.3-4.3s4.3,1.9,4.3,4.3v32.5h3.2V20.1c0-2.4,1.9-4.3,4.3-4.3c2.4,0,4.3,1.9,4.3,4.3v38.4h3.2V44.6
				c0-2.4,1.9-4.3,4.3-4.3c2.4,0,4.3,1.9,4.3,4.3v10.9V62.3C77.9,62.2,77.9,62.2,77.9,62.3z"/>
			<path class="st3" d="M81.3,62.4v1.2c0,0.5,0,0.9-0.1,1.4C79.8,81,66.2,93.5,50,93.5c-17.3,0-31.3-14-31.3-31.3v-1.4v-5.3l0-7.5
				V31.7c0-4.2,3.5-7.7,7.7-7.7c1.5,0,2.9,0.4,4.1,1.2v-8.4c0-4.2,3.5-7.7,7.7-7.7c1.6,0,3.1,0.5,4.3,1.3C43.3,7,46.4,4.5,50,4.5
				c4.2,0,7.7,3.5,7.7,7.7v1.4c1.2-0.7,2.6-1.2,4.1-1.2c4.2,0,7.7,3.5,7.7,7.7v18c1.2-0.8,2.6-1.2,4.1-1.2c4.2,0,7.7,3.5,7.7,7.7
				v10.9v6.7V62.4L81.3,62.4z M77.9,63.6v-1.3c0,0,0,0,0,0v-6.7V44.6c0-2.4-1.9-4.3-4.3-4.3c-2.4,0-4.3,1.9-4.3,4.3v13.9h-3.2V20.1
				c0-2.4-1.9-4.3-4.3-4.3c-2.4,0-4.3,1.9-4.3,4.3v24.6h-3.2V12.2c0-2.4-1.9-4.3-4.3-4.3s-4.3,1.9-4.3,4.3v32.5h-3.2V16.8
				c0-2.4-1.9-4.3-4.3-4.3c-2.4,0-4.3,1.9-4.3,4.3V48h-3.2V31.7c0-2.4-1.9-4.3-4.3-4.3c-2.4,0-4.3,1.9-4.3,4.3V48v7.5v5.3v1.4
				c0,15.4,12.5,27.9,27.9,27.9c14.7,0,26.7-11.3,27.8-25.7C77.9,64.2,77.9,63.9,77.9,63.6z"/>
		</g>
		<g>
			<path class="st4" d="M50,7.9c2.4,0,4.3,1.9,4.3,4.3v32.5h3.2V20.1c0-2.4,1.9-4.3,4.3-4.3c2.4,0,4.3,1.9,4.3,4.3v38.4h3.2V44.6
				c0-2.4,1.9-4.3,4.3-4.3c2.4,0,4.3,1.9,4.3,4.3v10.9v6.7c0,0,0,0,0,0v1.3c0,0.3,0,0.6-0.1,0.9C76.7,78.8,64.7,90.1,50,90.1
				c-15.4,0-27.9-12.5-27.9-27.9v-1.4v-5.3V48V31.7c0-2.4,1.9-4.3,4.3-4.3c2.4,0,4.3,1.9,4.3,4.3V48h3.2V16.8c0-2.4,1.9-4.3,4.3-4.3
				c2.4,0,4.3,1.9,4.3,4.3v27.9h3.2V12.2C45.7,9.8,47.6,7.9,50,7.9z"/>
			<path class="st4" d="M50,4.5c-3.6,0-6.7,2.5-7.5,5.9c-1.2-0.8-2.7-1.3-4.3-1.3c-4.2,0-7.7,3.4-7.7,7.7v8.4
				c-1.2-0.7-2.6-1.2-4.1-1.2c-4.2,0-7.7,3.5-7.7,7.7V48l0,7.5v5.3v1.4c0,17.2,14,31.3,31.3,31.3c16.2,0,29.8-12.5,31.2-28.6
				c0.1-0.4,0.1-0.9,0.1-1.4v-1.2v0v-0.1v-6.7V44.6c0-4.2-3.5-7.7-7.7-7.7c-1.5,0-2.9,0.4-4.1,1.2v-18c0-4.3-3.5-7.7-7.7-7.7
				c-1.5,0-2.9,0.4-4.1,1.2v-1.4C57.7,7.9,54.2,4.5,50,4.5z"/>
		</g>
	</g>
</g>
</svg>
